General

Complete name                    : Ozzy Osbourne - Live At Budokan - DVDrip.aaaevilacharya.m4v
Format                           : MPEG-4
Format profile                   : Base Media / Version 2
Codec ID                         : mp42
File size                        : 301 MiB
Duration                         : 1h 24mn
Overall bit rate                 : 499 Kbps
Encoded date                     : UTC 2010-11-26 23:32:00
Tagged date                      : UTC 2010-11-27 00:24:09



Video
ID                               : 1
Format                           : AVC
Format/Info                      : Advanced Video Codec
Format profile                   : Baseline@L2.1
Format settings, CABAC           : No
Format settings, ReFrames        : 2 frames
Codec ID                         : avc1
Codec ID/Info                    : Advanced Video Coding
Duration                         : 1h 24mn
Bit rate mode                    : Variable
Bit rate                         : 365 Kbps
Width                            : 480 pixels
Height                           : 272 pixels
Display aspect ratio             : 16:9
Frame rate mode                  : Variable
Frame rate                       : 25.000 fps
Minimum frame rate               : 12.500 fps
Maximum frame rate               : 25.000 fps
Color space                      : YUV
Chroma subsampling               : 4:2:0
Bit depth                        : 8 bits
Scan type                        : Progressive
Bits/(Pixel*Frame)               : 0.112
Stream size                      : 222 MiB (74%)
Writing library                  : x264 core 79


Audio
ID                               : 2
Format                           : AAC
Format/Info                      : Advanced Audio Codec
Format version                   : Version 4
Format profile                   : LC
Format settings, SBR             : No
Codec ID                         : 40
Duration                         : 1h 24mn
Bit rate mode                    : Variable
Bit rate                         : 128 Kbps
Maximum bit rate                 : 145 Kbps
Channel(s)                       : 2 channels
Channel positions                : Front: L R
Sampling rate                    : 48.0 KHz
Stream size                      : 77.2 MiB (26%)
Encoded date                     : UTC 2010-11-26 23:32:00
Tagged date                      : UTC 2010-11-27 00:24:09

Text
ID                               : 3
Format                           : Apple text
Codec ID                         : text
Duration                         : 1h 24mn
Bit rate                         : 0
Stream size                      : 14.0 Bytes (0%)
Encoded date                     : UTC 2010-11-26 23:32:00
Tagged date                      : UTC 2010-11-27 00:24:09

screenshots
 
http://img193.imageshack.us/img193/5201/ozzyosbourneliveatbudok.jpg
 
http://img140.imageshack.us/img140/5201/ozzyosbourneliveatbudok.jpg
 
http://img832.imageshack.us/img832/5201/ozzyosbourneliveatbudok.jpg
 
http://img227.imageshack.us/img227/5201/ozzyosbourneliveatbudok.jpg
 
http://img18.imageshack.us/img18/5201/ozzyosbourneliveatbudok.jpg
 
http://img593.imageshack.us/img593/5201/ozzyosbourneliveatbudok.jpg
 
http://img121.imageshack.us/img121/5201/ozzyosbourneliveatbudok.jpg
 
http://img139.imageshack.us/img139/5201/ozzyosbourneliveatbudok.jpg
